<?xml version="1.0" encoding="UTF-8" standalone="no"?><!-- Generator: Gravit.io --><svg xmlns="http://www.w3.org/2000/svg" xmlns:xlink="http://www.w3.org/1999/xlink" style="isolation:isolate" viewBox="-67.426 -2038.245 619.426 309.713" width="619.426pt" height="309.713pt"><g><path d=" M 15.558 -1728.533 L -66.467 -1728.533 L -67.426 -1729.492 L -67.426 -1811.516 L 15.558 -1728.533 Z " fill="rgb(7,155,217)"/><path d=" M -48.082 -2038.245 L 33.943 -2038.245 L 343.655 -1728.533 L 261.631 -1728.533 L -48.082 -2038.245 Z " fill="rgb(56,184,146)"/><path d=" M 280.016 -2038.245 L 362.04 -2038.245 L 552 -1848.286 L 552 -1766.261 L 280.016 -2038.245 Z " fill="rgb(107,214,76)"/><path d=" M 97.582 -1728.533 L 15.558 -1728.533 L -67.426 -1811.516 L -67.426 -1893.54 L 97.582 -1728.533 Z " fill="rgb(18,161,199)"/><path d=" M 33.943 -2038.245 L 115.967 -2038.245 L 425.68 -1728.533 L 343.655 -1728.533 L 33.943 -2038.245 Z " fill="rgb(68,191,129)"/><path d=" M 362.04 -2038.245 L 444.065 -2038.245 L 552 -1930.31 L 552 -1848.286 L 362.04 -2038.245 Z " fill="rgb(118,221,60)"/><path d=" M 179.607 -1728.533 L 97.582 -1728.533 L -67.426 -1893.54 L -67.426 -1975.565 L 179.607 -1728.533 Z " fill="rgb(30,169,182)"/><path d=" M 115.967 -2038.245 L 197.991 -2038.245 L 507.704 -1728.533 L 425.68 -1728.533 L 115.967 -2038.245 Z " fill="rgb(81,199,112)"/><path d=" M 444.065 -2038.245 L 526.089 -2038.245 L 552 -2012.334 L 552 -1930.31 L 444.065 -2038.245 Z " fill="rgb(132,229,41)"/><path d=" M -48.082 -2038.245 L -67.426 -2038.245 L -67.426 -1975.565 L 179.607 -1728.533 L 261.631 -1728.533 L -48.082 -2038.245 Z " fill="rgb(44,177,164)"/><path d=" M 197.991 -2038.245 L 280.016 -2038.245 L 552 -1766.261 L 552 -1728.533 L 507.704 -1728.533 L 197.991 -2038.245 Z " fill="rgb(94,206,94)"/><path d=" M 526.089 -2038.245 L 552 -2038.245 L 552 -2012.334 L 526.089 -2038.245 Z " fill="rgb(143,235,26)"/></g></svg>